<svg xmlns="http://www.w3.org/2000/svg" viewBox="-30 -45 220 220" fill="none">
	<!--
		P&S blocky starburst motif.
		The uneven ray widths, lengths, gaps, and off-centre origin are intentional.
	-->
	<g fill="#fad027" transform="translate(78 61)">
		<rect x="27" y="-3" width="65" height="7" transform="rotate(-8)" />
		<rect x="32" y="-5" width="46" height="10" transform="rotate(8)" />
		<rect x="25" y="-2.5" width="78" height="5" transform="rotate(19)" />
		<rect x="31" y="-4" width="55" height="8" transform="rotate(33)" />
		<rect x="26" y="-6" width="73" height="12" transform="rotate(49)" />
		<rect x="34" y="-3.5" width="49" height="7" transform="rotate(67)" />
		<rect x="24" y="-5" width="66" height="10" transform="rotate(83)" />
		<rect x="29" y="-3" width="54" height="6" transform="rotate(101)" />
		<rect x="25" y="-5.5" width="76" height="11" transform="rotate(119)" />
		<rect x="35" y="-3" width="43" height="6" transform="rotate(138)" />
		<rect x="26" y="-4.5" width="61" height="9" transform="rotate(157)" />
		<rect x="31" y="-7" width="52" height="14" transform="rotate(178)" />
		<rect x="25" y="-3" width="70" height="6" transform="rotate(198)" />
		<rect x="34" y="-4" width="45" height="8" transform="rotate(221)" />
		<rect x="27" y="-6" width="68" height="12" transform="rotate(244)" />
		<rect x="36" y="-2.5" width="43" height="5" transform="rotate(267)" />
		<rect x="24" y="-4.5" width="72" height="9" transform="rotate(291)" />
		<rect x="33" y="-3" width="50" height="6" transform="rotate(316)" />
		<rect x="26" y="-5" width="64" height="10" transform="rotate(337)" />
	</g>
</svg>
